<mxfile host="app.diagrams.net" modified="2023-10-26T12:34:48.602Z" agent="Mozilla/5.0 (Windows NT 10.0; Win64; x64) AppleWebKit/537.36 (KHTML, like Gecko) Chrome/118.0.0.0 Safari/537.36" etag="cVl6oxM5rYZ0sR-8UFCL" version="21.6.6" type="device">
  <diagram id="weu-m9CZEWMPXb3S5T0G" name="Page-1">
    <mxGraphModel dx="1953" dy="1131" grid="1" gridSize="10" guides="1" tooltips="1" connect="1" arrows="1" fold="1" page="1" pageScale="1" pageWidth="827" pageHeight="1169" math="0" shadow="0">
      <root>
        <mxCell id="0" />
        <mxCell id="1" parent="0" />
        <mxCell id="JH0_C4WM7Rr2u1dncV-A-1" value="Gendernix" style="shape=umlFrame;whiteSpace=wrap;html=1;pointerEvents=0;recursiveResize=0;container=1;collapsible=0;width=160;" vertex="1" parent="1">
          <mxGeometry x="40" y="110" width="740" height="650" as="geometry" />
        </mxCell>
        <mxCell id="JH0_C4WM7Rr2u1dncV-A-47" style="edgeStyle=orthogonalEdgeStyle;rounded=0;orthogonalLoop=1;jettySize=auto;html=1;endArrow=halfCircle;endFill=0;" edge="1" parent="JH0_C4WM7Rr2u1dncV-A-1" source="JH0_C4WM7Rr2u1dncV-A-33">
          <mxGeometry relative="1" as="geometry">
            <mxPoint x="135" y="160" as="targetPoint" />
            <Array as="points">
              <mxPoint x="135" y="85" />
            </Array>
          </mxGeometry>
        </mxCell>
        <mxCell id="JH0_C4WM7Rr2u1dncV-A-51" style="edgeStyle=orthogonalEdgeStyle;rounded=0;orthogonalLoop=1;jettySize=auto;html=1;endArrow=halfCircle;endFill=0;" edge="1" parent="JH0_C4WM7Rr2u1dncV-A-1" source="JH0_C4WM7Rr2u1dncV-A-33">
          <mxGeometry relative="1" as="geometry">
            <mxPoint x="369" y="160" as="targetPoint" />
          </mxGeometry>
        </mxCell>
        <mxCell id="JH0_C4WM7Rr2u1dncV-A-54" style="edgeStyle=orthogonalEdgeStyle;rounded=0;orthogonalLoop=1;jettySize=auto;html=1;endArrow=halfCircle;endFill=0;" edge="1" parent="JH0_C4WM7Rr2u1dncV-A-1" source="JH0_C4WM7Rr2u1dncV-A-33">
          <mxGeometry relative="1" as="geometry">
            <mxPoint x="615" y="160" as="targetPoint" />
          </mxGeometry>
        </mxCell>
        <mxCell id="JH0_C4WM7Rr2u1dncV-A-33" value="«component»&lt;br&gt;&lt;b&gt;ViewModel&lt;/b&gt;" style="html=1;dropTarget=0;whiteSpace=wrap;" vertex="1" parent="JH0_C4WM7Rr2u1dncV-A-1">
          <mxGeometry x="279" y="40" width="180" height="90" as="geometry" />
        </mxCell>
        <mxCell id="JH0_C4WM7Rr2u1dncV-A-34" value="" style="shape=module;jettyWidth=8;jettyHeight=4;" vertex="1" parent="JH0_C4WM7Rr2u1dncV-A-33">
          <mxGeometry x="1" width="20" height="20" relative="1" as="geometry">
            <mxPoint x="-27" y="7" as="offset" />
          </mxGeometry>
        </mxCell>
        <mxCell id="JH0_C4WM7Rr2u1dncV-A-46" style="edgeStyle=orthogonalEdgeStyle;rounded=0;orthogonalLoop=1;jettySize=auto;html=1;endArrow=oval;endFill=0;" edge="1" parent="JH0_C4WM7Rr2u1dncV-A-1">
          <mxGeometry relative="1" as="geometry">
            <mxPoint x="135" y="210" as="sourcePoint" />
            <mxPoint x="135" y="160" as="targetPoint" />
            <Array as="points">
              <mxPoint x="135" y="175" />
              <mxPoint x="135" y="175" />
            </Array>
          </mxGeometry>
        </mxCell>
        <mxCell id="JH0_C4WM7Rr2u1dncV-A-48" value="ITextProvider" style="edgeLabel;html=1;align=center;verticalAlign=middle;resizable=0;points=[];" vertex="1" connectable="0" parent="JH0_C4WM7Rr2u1dncV-A-46">
          <mxGeometry x="0.8134" y="-1" relative="1" as="geometry">
            <mxPoint y="11" as="offset" />
          </mxGeometry>
        </mxCell>
        <mxCell id="JH0_C4WM7Rr2u1dncV-A-35" value="«component»&lt;br&gt;StaticTextProvider" style="html=1;dropTarget=0;whiteSpace=wrap;" vertex="1" parent="JH0_C4WM7Rr2u1dncV-A-1">
          <mxGeometry x="35" y="210" width="180" height="90" as="geometry" />
        </mxCell>
        <mxCell id="JH0_C4WM7Rr2u1dncV-A-36" value="" style="shape=module;jettyWidth=8;jettyHeight=4;" vertex="1" parent="JH0_C4WM7Rr2u1dncV-A-35">
          <mxGeometry x="1" width="20" height="20" relative="1" as="geometry">
            <mxPoint x="-27" y="7" as="offset" />
          </mxGeometry>
        </mxCell>
        <mxCell id="JH0_C4WM7Rr2u1dncV-A-50" style="edgeStyle=orthogonalEdgeStyle;rounded=0;orthogonalLoop=1;jettySize=auto;html=1;endArrow=oval;endFill=0;" edge="1" parent="JH0_C4WM7Rr2u1dncV-A-1" source="JH0_C4WM7Rr2u1dncV-A-37">
          <mxGeometry relative="1" as="geometry">
            <mxPoint x="369" y="160" as="targetPoint" />
          </mxGeometry>
        </mxCell>
        <mxCell id="JH0_C4WM7Rr2u1dncV-A-52" value="ICSSProtector" style="edgeLabel;html=1;align=center;verticalAlign=middle;resizable=0;points=[];" vertex="1" connectable="0" parent="JH0_C4WM7Rr2u1dncV-A-50">
          <mxGeometry x="0.4548" y="1" relative="1" as="geometry">
            <mxPoint as="offset" />
          </mxGeometry>
        </mxCell>
        <mxCell id="JH0_C4WM7Rr2u1dncV-A-73" style="edgeStyle=orthogonalEdgeStyle;rounded=0;orthogonalLoop=1;jettySize=auto;html=1;endArrow=oval;endFill=0;" edge="1" parent="JH0_C4WM7Rr2u1dncV-A-1" source="JH0_C4WM7Rr2u1dncV-A-37">
          <mxGeometry relative="1" as="geometry">
            <mxPoint x="369" y="370" as="targetPoint" />
          </mxGeometry>
        </mxCell>
        <mxCell id="JH0_C4WM7Rr2u1dncV-A-74" value="IXSSProtector" style="edgeLabel;html=1;align=center;verticalAlign=middle;resizable=0;points=[];" vertex="1" connectable="0" parent="JH0_C4WM7Rr2u1dncV-A-73">
          <mxGeometry x="0.5796" y="-1" relative="1" as="geometry">
            <mxPoint as="offset" />
          </mxGeometry>
        </mxCell>
        <mxCell id="JH0_C4WM7Rr2u1dncV-A-37" value="«component»&lt;br&gt;XSSProtector" style="html=1;dropTarget=0;whiteSpace=wrap;" vertex="1" parent="JH0_C4WM7Rr2u1dncV-A-1">
          <mxGeometry x="279" y="210" width="180" height="90" as="geometry" />
        </mxCell>
        <mxCell id="JH0_C4WM7Rr2u1dncV-A-38" value="" style="shape=module;jettyWidth=8;jettyHeight=4;" vertex="1" parent="JH0_C4WM7Rr2u1dncV-A-37">
          <mxGeometry x="1" width="20" height="20" relative="1" as="geometry">
            <mxPoint x="-27" y="7" as="offset" />
          </mxGeometry>
        </mxCell>
        <mxCell id="JH0_C4WM7Rr2u1dncV-A-55" style="edgeStyle=orthogonalEdgeStyle;rounded=0;orthogonalLoop=1;jettySize=auto;html=1;exitX=0.5;exitY=0;exitDx=0;exitDy=0;endArrow=oval;endFill=0;" edge="1" parent="JH0_C4WM7Rr2u1dncV-A-1" source="JH0_C4WM7Rr2u1dncV-A-39">
          <mxGeometry relative="1" as="geometry">
            <mxPoint x="615" y="160" as="targetPoint" />
          </mxGeometry>
        </mxCell>
        <mxCell id="JH0_C4WM7Rr2u1dncV-A-56" value="ITextPostProcessor" style="edgeLabel;html=1;align=center;verticalAlign=middle;resizable=0;points=[];" vertex="1" connectable="0" parent="JH0_C4WM7Rr2u1dncV-A-55">
          <mxGeometry x="0.262" y="1" relative="1" as="geometry">
            <mxPoint as="offset" />
          </mxGeometry>
        </mxCell>
        <mxCell id="JH0_C4WM7Rr2u1dncV-A-62" style="edgeStyle=orthogonalEdgeStyle;rounded=0;orthogonalLoop=1;jettySize=auto;html=1;endArrow=halfCircle;endFill=0;" edge="1" parent="JH0_C4WM7Rr2u1dncV-A-1" source="JH0_C4WM7Rr2u1dncV-A-39">
          <mxGeometry relative="1" as="geometry">
            <mxPoint x="615" y="330" as="targetPoint" />
          </mxGeometry>
        </mxCell>
        <mxCell id="JH0_C4WM7Rr2u1dncV-A-39" value="«component»&lt;br&gt;TextPostProcessor" style="html=1;dropTarget=0;whiteSpace=wrap;" vertex="1" parent="JH0_C4WM7Rr2u1dncV-A-1">
          <mxGeometry x="525" y="210" width="180" height="90" as="geometry" />
        </mxCell>
        <mxCell id="JH0_C4WM7Rr2u1dncV-A-40" value="" style="shape=module;jettyWidth=8;jettyHeight=4;" vertex="1" parent="JH0_C4WM7Rr2u1dncV-A-39">
          <mxGeometry x="1" width="20" height="20" relative="1" as="geometry">
            <mxPoint x="-27" y="7" as="offset" />
          </mxGeometry>
        </mxCell>
        <mxCell id="JH0_C4WM7Rr2u1dncV-A-61" style="edgeStyle=orthogonalEdgeStyle;rounded=0;orthogonalLoop=1;jettySize=auto;html=1;endArrow=oval;endFill=0;" edge="1" parent="JH0_C4WM7Rr2u1dncV-A-1" source="JH0_C4WM7Rr2u1dncV-A-41">
          <mxGeometry relative="1" as="geometry">
            <mxPoint x="615" y="330" as="targetPoint" />
          </mxGeometry>
        </mxCell>
        <mxCell id="JH0_C4WM7Rr2u1dncV-A-63" value="ITPPMiddleware" style="edgeLabel;html=1;align=center;verticalAlign=middle;resizable=0;points=[];" vertex="1" connectable="0" parent="JH0_C4WM7Rr2u1dncV-A-61">
          <mxGeometry x="0.29" relative="1" as="geometry">
            <mxPoint as="offset" />
          </mxGeometry>
        </mxCell>
        <mxCell id="JH0_C4WM7Rr2u1dncV-A-72" style="edgeStyle=orthogonalEdgeStyle;rounded=0;orthogonalLoop=1;jettySize=auto;html=1;endArrow=halfCircle;endFill=0;" edge="1" parent="JH0_C4WM7Rr2u1dncV-A-1" source="JH0_C4WM7Rr2u1dncV-A-41">
          <mxGeometry relative="1" as="geometry">
            <mxPoint x="369" y="370" as="targetPoint" />
            <Array as="points">
              <mxPoint x="369" y="415" />
            </Array>
          </mxGeometry>
        </mxCell>
        <mxCell id="JH0_C4WM7Rr2u1dncV-A-41" value="«component»&lt;br&gt;XSSMiddleware" style="html=1;dropTarget=0;whiteSpace=wrap;" vertex="1" parent="JH0_C4WM7Rr2u1dncV-A-1">
          <mxGeometry x="525" y="370" width="180" height="90" as="geometry" />
        </mxCell>
        <mxCell id="JH0_C4WM7Rr2u1dncV-A-42" value="" style="shape=module;jettyWidth=8;jettyHeight=4;" vertex="1" parent="JH0_C4WM7Rr2u1dncV-A-41">
          <mxGeometry x="1" width="20" height="20" relative="1" as="geometry">
            <mxPoint x="-27" y="7" as="offset" />
          </mxGeometry>
        </mxCell>
        <mxCell id="JH0_C4WM7Rr2u1dncV-A-43" value="«component»&lt;br&gt;DicGenderMiddleware" style="html=1;dropTarget=0;whiteSpace=wrap;" vertex="1" parent="JH0_C4WM7Rr2u1dncV-A-1">
          <mxGeometry x="525" y="530" width="180" height="90" as="geometry" />
        </mxCell>
        <mxCell id="JH0_C4WM7Rr2u1dncV-A-44" value="" style="shape=module;jettyWidth=8;jettyHeight=4;" vertex="1" parent="JH0_C4WM7Rr2u1dncV-A-43">
          <mxGeometry x="1" width="20" height="20" relative="1" as="geometry">
            <mxPoint x="-27" y="7" as="offset" />
          </mxGeometry>
        </mxCell>
        <mxCell id="JH0_C4WM7Rr2u1dncV-A-67" style="edgeStyle=orthogonalEdgeStyle;rounded=0;orthogonalLoop=1;jettySize=auto;html=1;endArrow=halfCircle;endFill=0;" edge="1" parent="JH0_C4WM7Rr2u1dncV-A-1">
          <mxGeometry relative="1" as="geometry">
            <mxPoint x="614.71" y="490" as="targetPoint" />
            <mxPoint x="614.71" y="460" as="sourcePoint" />
          </mxGeometry>
        </mxCell>
        <mxCell id="JH0_C4WM7Rr2u1dncV-A-68" style="edgeStyle=orthogonalEdgeStyle;rounded=0;orthogonalLoop=1;jettySize=auto;html=1;endArrow=oval;endFill=0;" edge="1" parent="JH0_C4WM7Rr2u1dncV-A-1">
          <mxGeometry relative="1" as="geometry">
            <mxPoint x="614.71" y="530" as="sourcePoint" />
            <mxPoint x="614.71" y="490" as="targetPoint" />
          </mxGeometry>
        </mxCell>
        <mxCell id="JH0_C4WM7Rr2u1dncV-A-69" value="ITPPMiddleware" style="edgeLabel;html=1;align=center;verticalAlign=middle;resizable=0;points=[];" vertex="1" connectable="0" parent="JH0_C4WM7Rr2u1dncV-A-68">
          <mxGeometry x="0.29" relative="1" as="geometry">
            <mxPoint as="offset" />
          </mxGeometry>
        </mxCell>
      </root>
    </mxGraphModel>
  </diagram>
</mxfile>
